# xmcd
#
# Track frame offsets:
#	150
#	12262
#	24240
#	38855
#	51990
#	64030
#	74975
#	85475
#	98692
#	110405
#	123700
#	135022
#
# Disc length: 1943 seconds
#
# Revision: 1
# Processed by: cddbd v1.4PL0 Copyright (c) Steve Scherf et al.
# Submitted via: CDmax 1.8
#
DISCID=a207950c
DTITLE=Sam and Dave - Sweet Soul Music
DYEAR=1900
DGENRE=Blues
TTITLE0=You don´t know like know
TTITLE1=Hold on! I´m Comin
TTITLE2=´When Something is wrong with my baby
TTITLE3=Soul man
TTITLE4=I thank you
TTITLE5=You don´t know what you mean to me
TTITLE6=Soul sister, brown sugar
TTITLE7=6345789
TTITLE8=respect
TTITLE9=How sweet it is
TTITLE10=Land of 1000 dances
TTITLE11=Sweet soul music
EXTD=
EXTT0=
EXTT1=
EXTT2=
EXTT3=
EXTT4=
EXTT5=
EXTT6=
EXTT7=
EXTT8=
EXTT9=
EXTT10=
EXTT11=
PLAYORDER=
